<?xml version="1.0" encoding="UTF-8"?>
<!-- Created by Rachel Fish for wetfish.net, licensed: Creative Commons Attribution 4.0 International -->
<svg viewBox="543 -138 1337 420" width="1337" height="420" xmlns="http://www.w3.org/2000/svg" preserveAspectRatio="none">
    <style type="text/css">
        .exo{fill:#FF3FBC;fill-opacity:0.4;}
        .atmo{fill:#AAD2FF;fill-opacity:0.1;}
    </style>
    
    <path class="exo" d="M1130.2-114.2c-617.3,0-1155.8,338.8-1439.8,840.5C72.3,752.5,456.7,750.1,839.1,755c382,4,762-1,1144,2 c146,1,290,4,436,13c60.6,3.4,120.9,7.5,181,12C2325.3,249.8,1770-114.2,1130.2-114.2z"/>
    <path class="atmo" d="M1131.1-107.3h-1l0,0c-612.6,0-1147.2,336.2-1429.2,834C81,752.5,463.5,750.2,844,755c382,4,762-1,1144,2 c146,1,290,4,436,13c55.4,3.1,110.6,6.8,165.6,10.8C2316.5,253.4,1765.6-107.3,1131.1-107.3z"/>
    <path class="atmo" d="M1122.1-92.4h-1v0C518.7-92.4-7.1,238.2-284.5,727.7C90.8,752.4,468.3,750.2,844,755c382,4,762-1,1144,2 c146,1,290,4,436,13c44,2.5,87.7,5.3,131.3,8.4C2286.2,261.1,1745.2-92.4,1122.1-92.4z"/>
    <path class="atmo" d="M1126.1-98.3h-1C518.7-98.3-10.5,234.5-289.5,727.3C87.4,752.4,466.6,750.2,844,755c382,4,762-1,1144,2 c146,1,290,4,436,13c48.5,2.7,96.8,5.9,144.9,9.3C2298.4,258.1,1753.6-98.3,1126.1-98.3z"/>
    <path class="atmo" d="M1121.2-91.4L1121.2-91.4C519.2-91.4-6.1,238.8-283.4,727.7C91.5,752.4,468.7,750.2,844,755c382,4,762-1,1144,2 c146,1,290,4,436,13c43.2,2.4,86.2,5.2,129.2,8.2C2284.1,261.6,1743.6-91.4,1121.2-91.4z"/>
    <path class="atmo" d="M1059.7,81.4L1059.7,81.4C564.1,81.4,129.4,343.8-113,737.2C205.7,751.9,525.5,751,844,755c382,4,762-1,1144,2 c86.8,0.6,172.9,1.9,259.2,4.8C2008,354.8,1565.6,81.4,1059.7,81.4z"/>
    <path class="atmo" d="M1038.3,198.2L1038.3,198.2c-409.6,0-768.4,218.9-965.8,545.9c257.2,7.6,514.8,7.6,771.5,10.8 c382,4,762-1,1144,2c8,0.1,15.9,0.1,23.9,0.2C1816.2,422.9,1453.4,198.2,1038.3,198.2z"/>
    <path class="atmo" d="M1034.3,205.4h-1v0c-404.8,0-759.4,216-954.9,538.9c255.2,7.4,510.8,7.4,765.5,10.7c382,4,762-1,1144,2 c2.9,0,5.9,0,8.8,0.1C1803,427.1,1444.4,205.4,1034.3,205.4z"/>
    <path class="atmo" d="M1057.9,88.7L1057.9,88.7c-490.8,0-921.4,259.6-1161.8,648.9C211.8,751.9,528.5,751,844,755c382,4,762-1,1144,2 c82.4,0.6,164.2,1.8,246,4.3C1996.7,358.9,1558.7,88.7,1057.9,88.7z"/>
</svg>